<?xml version="1.0" standalone="no"?>
<!DOCTYPE svg PUBLIC "-//W3C//DTD SVG 20010904//EN"
 "http://www.w3.org/TR/2001/REC-SVG-20010904/DTD/svg10.dtd">
<svg version="1.0" xmlns="http://www.w3.org/2000/svg"
 width="1024.000000pt" height="1024.000000pt" viewBox="0 0 1024.000000 1024.000000"
 preserveAspectRatio="xMidYMid meet">
<metadata>
Created by potrace 1.14, written by Peter Selinger 2001-2017
</metadata>
<g transform="translate(0.000000,1024.000000) scale(0.100000,-0.100000)"
fill="#000000" stroke="none">
<path d="M43 10228 c-5 -7 -17 -29 -26 -50 -16 -33 -17 -249 -17 -2956 0
-1937 3 -2923 10 -2927 6 -3 10 -2 10 4 0 5 9 12 19 16 11 3 22 14 25 23 3 9
17 30 30 45 14 16 27 34 29 40 2 7 8 9 12 5 9 -8 -24 -110 -34 -104 -4 3 -8
-5 -8 -16 -3 -31 -22 -47 -33 -28 -10 16 -12 12 -14 -30 -1 -14 -5 -30 -8 -36
-7 -11 -2 -60 8 -75 2 -4 1 -10 -3 -12 -5 -3 -8 -31 -8 -64 0 -32 -4 -61 -10
-65 -6 -5 -6 -8 2 -8 7 0 10 -6 8 -12 -3 -7 -7 -26 -9 -43 -3 -16 -8 -41 -12
-55 -5 -14 -10 -532 -11 -1152 -3 -1004 -2 -1131 12 -1158 9 -16 13 -30 9 -30
-4 0 -1 -7 6 -15 7 -8 9 -15 5 -15 -4 0 -3 -6 2 -12 5 -7 10 -29 12 -48 2 -19
6 -37 10 -40 3 -3 8 -16 10 -30 1 -14 9 -37 17 -52 8 -16 12 -28 9 -28 -4 0 3
-13 14 -29 12 -16 21 -32 21 -36 0 -6 49 -81 75 -113 60 -78 175 -172 210
-172 7 0 15 -4 17 -8 2 -5 16 -12 32 -16 26 -6 27 -5 13 9 -9 8 -20 15 -25 15
-5 0 -17 9 -27 20 -10 11 -22 20 -28 20 -11 0 -139 132 -133 137 2 3 -4 13
-15 24 -21 21 -25 44 -8 55 8 4 9 -1 4 -17 -5 -19 -4 -21 4 -9 10 13 12 13 21
0 5 -8 10 -10 10 -5 0 6 5 2 11 -7 5 -10 14 -18 20 -18 5 0 19 -9 31 -20 12
-11 28 -20 35 -20 7 0 13 -4 13 -8 0 -10 100 -65 100 -55 0 5 4 4 8 -2 11 -16
50 -35 70 -35 10 0 23 -5 30 -12 7 -7 12 -8 12 -4 0 5 7 3 15 -4 8 -7 15 -10
15 -6 0 4 13 0 29 -8 16 -9 31 -12 34 -9 4 3 13 0 22 -7 8 -7 15 -9 15 -5 0 4
6 3 13 -3 6 -6 15 -11 19 -11 52 -8 66 -15 65 -31 -1 -10 -5 -16 -9 -14 -4 3
-8 -2 -8 -10 0 -8 -5 -18 -12 -22 -7 -5 -9 -2 -4 7 4 8 1 6 -7 -3 -8 -10 -18
-14 -22 -10 -5 4 -5 2 -1 -5 4 -7 -5 -19 -21 -30 -37 -24 -48 -32 -86 -68 -18
-16 -35 -30 -39 -30 -3 0 -30 -20 -58 -45 -29 -25 -56 -44 -61 -42 -5 1 -9 -3
-9 -9 0 -13 -25 -39 -38 -39 -6 0 -13 -7 -16 -16 -3 -8 -10 -12 -16 -9 -5 3
-10 -1 -10 -10 0 -9 -4 -13 -10 -10 -5 3 -10 2 -10 -4 0 -6 -20 -29 -44 -53
-25 -23 -43 -45 -40 -49 2 -4 -4 -10 -15 -14 -11 -3 -25 -19 -32 -35 -8 -16
-17 -26 -21 -24 -4 3 -8 -2 -8 -10 0 -9 -4 -16 -10 -16 -5 0 -10 -6 -10 -14 0
-8 -7 -17 -16 -20 -8 -3 -12 -10 -9 -16 3 -5 1 -10 -4 -10 -6 0 -11 -6 -11
-14 0 -8 -7 -17 -16 -20 -8 -3 -12 -10 -9 -16 3 -5 2 -10 -3 -10 -9 0 -25 -37
-23 -52 1 -5 -4 -8 -10 -8 -5 0 -7 -4 -4 -10 3 -5 1 -10 -4 -10 -6 0 -11 -9
-11 -20 0 -11 -4 -20 -8 -20 -5 0 -9 -6 -10 -12 -2 -25 -8 -48 -15 -54 -4 -4
-7 -11 -7 -16 0 -4 2212 -8 4915 -8 3242 0 4915 3 4915 10 0 5 -9 15 -20 22
-11 7 -20 18 -20 25 0 6 -9 15 -20 18 -11 3 -20 10 -20 14 0 12 -80 91 -91 91
-5 0 -9 7 -9 16 0 8 -4 13 -8 10 -5 -3 -15 6 -22 19 -7 14 -21 27 -32 31 -10
3 -18 9 -18 14 0 5 -36 46 -80 90 -44 44 -80 85 -80 90 0 6 -7 10 -15 10 -8 0
-15 3 -15 8 -1 13 -99 112 -111 112 -7 0 -10 3 -7 6 3 3 -43 54 -102 114 -59
60 -105 112 -102 115 3 3 -2 5 -11 5 -9 0 -17 4 -17 9 0 5 -31 41 -70 80 -39
40 -70 74 -70 77 0 2 -19 25 -42 49 -71 74 -89 95 -82 95 4 0 -3 8 -14 19 -12
10 -22 23 -22 29 0 6 34 45 75 86 41 42 75 79 75 81 0 3 3 4 6 3 3 -2 12 12
19 29 8 18 19 33 24 33 6 0 8 6 5 14 -3 8 5 21 18 30 12 9 19 16 15 16 -4 0 2
18 13 40 11 21 20 46 20 55 0 8 5 15 10 15 6 0 10 11 10 23 0 13 3 27 7 31 7
7 14 31 16 59 1 9 4 17 7 17 6 0 8 12 12 68 2 18 9 32 15 32 7 0 13 5 13 10 0
6 6 10 14 10 8 0 16 7 20 15 3 8 12 15 20 15 30 0 216 156 216 181 0 6 5 7 10
4 6 -3 10 0 10 8 0 8 7 18 16 21 9 4 14 9 11 13 -4 3 1 13 11 22 23 21 55 71
45 71 -5 0 -1 5 7 10 8 5 16 13 16 17 5 26 18 53 26 53 5 0 6 6 2 12 -5 9 -2
8 10 -1 17 -14 64 -108 82 -166 18 -57 30 -85 36 -85 5 0 8 -9 8 -19 0 -11 5
-23 10 -26 6 -4 8 -10 5 -15 -3 -5 0 -14 7 -22 7 -7 13 -17 13 -23 1 -5 12
-44 25 -85 13 -41 24 -77 25 -80 0 -3 4 -11 8 -18 5 -6 6 -12 3 -12 -3 0 1
-18 9 -41 8 -23 12 -45 9 -50 -3 -5 0 -9 6 -9 6 0 9 -4 5 -9 -3 -5 -2 -12 3
-15 4 -2 9 -17 10 -33 3 -30 9 -68 12 -68 1 0 3 -12 4 -26 2 -14 6 -35 10 -45
26 -63 22 -312 -5 -359 -4 -5 -9 -23 -13 -39 -16 -68 -65 -147 -96 -158 -9 -3
-8 -7 4 -17 11 -10 16 -10 16 -2 0 7 5 9 10 6 6 -3 10 -2 10 3 0 5 12 21 26
36 15 14 23 26 19 26 -4 0 -2 7 5 15 7 8 9 15 4 15 -5 0 -1 5 9 11 9 6 15 14
12 20 -4 5 -1 9 5 9 6 0 8 4 5 10 -3 5 -2 10 4 10 6 0 7 7 4 17 -4 9 -2 14 3
10 19 -11 82 216 88 313 1 14 5 30 9 37 4 6 1 14 -5 16 -10 4 -9 8 2 16 11 8
12 11 2 11 -8 0 -10 5 -6 12 4 7 7 46 6 88 -2 76 -10 225 -12 225 -1 0 -4 18
-6 40 -10 81 -12 100 -14 100 -1 0 -4 11 -6 25 -7 54 -13 86 -19 120 -4 19 -8
40 -9 45 -1 6 -4 15 -7 20 -3 6 -6 23 -7 39 -1 17 -7 33 -13 37 -8 5 -8 9 0
14 8 4 9 11 2 18 -5 7 -12 35 -14 62 -3 28 -6 50 -7 50 -2 0 -4 9 -6 20 -18
111 -25 139 -37 154 -10 12 -9 13 3 6 13 -8 13 -7 1 8 -7 9 -11 17 -7 17 3 0
1 11 -4 25 -7 18 -6 25 3 25 8 0 8 3 -2 9 -8 5 -11 16 -6 30 4 13 2 21 -6 21
-9 0 -9 3 0 14 9 11 9 16 0 22 -8 5 -9 3 -4 -6 5 -9 4 -11 -4 -6 -9 6 -8 14 5
34 l17 27 -23 -20 -23 -20 12 22 c8 15 8 23 1 23 -5 0 -10 -6 -10 -12 -1 -7
-7 1 -14 17 -15 34 -10 59 10 51 9 -3 11 0 7 12 -6 14 -4 15 9 4 13 -10 15 -9
14 10 0 13 4 23 9 22 6 -1 34 23 62 53 29 29 50 53 48 53 -3 0 7 13 23 29 15
16 34 42 42 58 8 15 21 32 28 36 7 5 10 12 7 18 -4 5 -1 9 4 9 6 0 10 3 10 7
-3 20 2 34 11 28 6 -3 10 2 10 12 0 11 5 24 12 31 7 7 8 12 3 12 -4 0 0 10 11
22 10 12 13 18 5 13 -9 -5 -8 0 3 18 9 13 19 35 21 47 2 12 9 28 15 36 7 7 9
18 5 24 -3 5 -1 10 6 10 7 0 9 3 6 7 -4 3 -2 12 4 20 6 7 8 13 4 13 -5 0 0 10
11 22 10 12 13 18 6 14 -11 -6 -11 -4 -3 10 5 11 19 49 31 85 19 62 20 87 20
530 -1 350 -4 479 -14 522 -7 31 -11 57 -8 57 2 0 -1 7 -8 15 -7 8 -10 15 -7
15 3 0 -4 37 -15 83 -23 100 -29 126 -31 152 -1 11 -5 22 -8 25 -4 3 -10 21
-13 40 -3 19 -14 63 -25 98 -11 34 -17 62 -14 62 3 0 0 6 -6 14 -11 13 -22 46
-23 74 -1 6 -5 12 -9 12 -5 0 -6 7 -3 15 4 8 2 15 -3 15 -5 0 -9 8 -10 18 -2
29 -8 47 -16 53 -4 3 -10 18 -13 32 -2 15 -9 38 -14 52 -5 14 -6 25 -2 25 4 0
1 4 -5 8 -7 4 -15 19 -17 32 -2 14 -5 27 -6 30 -2 3 -2 8 -1 13 0 4 -3 7 -7 7
-5 0 -9 6 -10 13 -1 27 -12 60 -23 73 -6 8 -8 14 -4 14 4 0 2 7 -5 15 -6 8 -9
19 -5 25 3 5 2 10 -3 10 -5 0 -15 21 -22 48 -7 26 -17 51 -21 57 -5 5 -9 17
-9 27 0 10 -5 18 -10 18 -6 0 -9 3 -8 8 4 12 -24 102 -33 108 -5 3 -9 11 -9
19 0 8 -5 26 -12 42 -6 15 -12 30 -13 33 0 3 -6 15 -13 27 -6 12 -13 30 -15
40 -2 10 -9 30 -15 46 -19 44 -29 71 -32 82 -1 6 -6 15 -12 22 -5 7 -7 17 -3
23 3 5 1 10 -6 10 -7 0 -9 3 -6 7 4 3 2 12 -4 20 -6 7 -8 13 -4 13 4 0 3 6 -2
13 -6 6 -16 33 -23 60 -7 26 -17 47 -22 47 -5 0 -7 4 -3 10 3 5 1 17 -4 27
-12 24 -33 97 -29 103 1 3 -5 16 -14 29 -9 13 -14 30 -11 37 3 8 0 14 -6 14
-6 0 -10 3 -9 8 3 11 -44 156 -55 170 -5 6 -7 12 -4 12 3 0 1 16 -3 35 -4 19
-4 37 0 40 5 3 7 14 5 25 -2 11 0 22 6 25 5 4 9 16 9 28 1 22 1 22 12 2 6 -11
24 -33 39 -49 16 -15 29 -35 29 -44 0 -8 3 -13 6 -9 8 7 34 -17 34 -32 0 -5
10 -17 22 -25 12 -9 19 -16 14 -16 -5 0 0 -8 11 -17 11 -10 22 -26 26 -35 3
-10 11 -18 17 -18 6 0 9 -4 6 -9 -3 -5 1 -11 9 -15 8 -3 15 -13 15 -21 0 -9 5
-13 10 -10 6 3 10 1 10 -4 0 -10 30 -48 73 -93 9 -10 15 -18 12 -18 -3 0 6
-12 20 -27 14 -16 32 -35 40 -44 8 -9 15 -20 15 -25 0 -5 9 -15 20 -22 11 -7
20 -16 20 -22 0 -5 10 -20 23 -33 12 -13 29 -34 37 -47 8 -13 23 -30 33 -39 9
-8 17 -21 17 -29 0 -7 7 -15 15 -18 8 -4 15 -11 15 -16 0 -11 61 -101 72 -106
5 -2 8 -8 8 -12 0 -5 14 -31 30 -57 l30 -47 0 69 c0 60 -4 75 -32 119 -18 28
-37 54 -43 58 -6 5 -6 8 0 8 6 0 1 7 -9 15 -11 8 -16 15 -11 15 4 0 -4 11 -18
24 -14 13 -23 27 -20 30 4 3 0 6 -7 6 -7 0 -11 3 -7 6 5 5 -10 27 -40 59 -7 7
-9 15 -6 19 4 3 -1 6 -10 6 -10 0 -17 5 -17 11 0 12 -126 178 -145 191 -5 4
-6 8 -1 8 5 0 0 8 -10 18 -11 9 -30 34 -44 54 -14 21 -28 38 -32 38 -5 0 -8 5
-8 11 0 7 -11 22 -24 34 -14 13 -22 26 -19 29 4 3 1 6 -5 6 -7 0 -12 6 -12 14
0 8 -10 22 -22 30 -12 9 -19 16 -14 16 4 0 -4 15 -18 32 -15 18 -30 38 -34 43
-4 6 -11 18 -15 28 -3 9 -11 17 -17 17 -6 0 -8 5 -5 10 3 6 2 10 -3 10 -18 0
-35 62 -33 114 2 28 4 72 5 98 1 26 5 50 9 54 4 4 2 13 -4 21 -6 7 -8 13 -3
13 10 0 13 53 14 225 0 109 -5 250 -10 250 -1 0 -3 20 -5 45 -2 25 -6 63 -10
85 -3 22 -7 60 -8 85 -2 25 -6 51 -11 58 -4 7 -5 16 -2 19 3 3 1 12 -5 20 -9
10 -8 13 1 13 10 0 10 3 0 15 -7 8 -9 15 -5 15 4 0 2 7 -5 15 -10 12 -10 15 1
15 9 0 10 3 4 8 -6 4 -10 17 -9 30 1 12 -3 22 -8 22 -6 0 -8 6 -5 13 2 6 0 23
-6 37 -5 14 -11 36 -12 50 -3 27 -8 49 -23 103 -6 20 -7 38 -4 41 3 3 1 6 -4
6 -9 0 -13 14 -16 58 -1 6 -4 12 -7 12 -4 0 -8 11 -9 25 -1 14 -8 38 -16 53
-7 15 -12 35 -11 44 2 9 -3 22 -10 28 -7 6 -11 19 -8 29 3 10 0 22 -6 25 -6 4
-11 13 -11 21 0 8 -5 26 -12 42 -6 15 -11 31 -10 36 1 4 -2 7 -7 7 -6 0 -8 9
-6 20 2 12 -2 23 -10 27 -8 3 -13 9 -10 13 6 10 -27 103 -40 112 -5 4 -6 8 -1
8 4 0 1 12 -9 26 -11 18 -13 24 -4 19 8 -5 5 1 -5 13 -11 12 -16 25 -13 28 4
4 -2 19 -13 34 -11 16 -20 34 -20 42 0 19 -23 68 -32 68 -4 0 -5 7 -2 15 4 8
1 15 -6 15 -7 0 -10 7 -6 15 3 8 1 15 -4 15 -5 0 -12 11 -16 25 -3 14 -10 25
-16 25 -5 0 -7 4 -3 9 3 5 1 12 -5 16 -5 3 -10 14 -10 24 0 10 -7 24 -15 31
-8 7 -15 21 -15 31 0 11 -7 19 -16 19 -9 0 -14 6 -11 13 3 7 -1 21 -9 31 -7
11 -11 23 -8 27 3 5 1 9 -4 9 -10 0 -36 58 -33 73 1 5 -3 6 -8 2 -6 -3 -13 6
-17 20 -3 14 -9 25 -13 25 -3 0 -15 18 -25 40 -11 22 -23 40 -28 40 -5 0 -6 5
-3 10 3 6 1 10 -4 10 -6 0 -11 7 -11 16 0 8 -4 12 -10 9 -5 -3 -10 2 -10 13 0
10 -9 28 -19 39 -11 12 -17 23 -14 27 3 3 -2 8 -11 12 -9 3 -16 12 -16 20 0 8
-4 14 -10 14 -5 0 -10 7 -10 15 0 8 -4 15 -10 15 -5 0 -10 6 -10 13 0 7 -9 23
-20 35 -11 12 -20 25 -20 30 0 5 -9 17 -20 27 -11 10 -20 24 -20 32 0 8 -4 12
-9 9 -5 -3 -11 1 -15 9 -5 13 -499 15 -4299 15 -3424 0 -4296 -3 -4304 -12z
m8715 -310 c9 -16 20 -28 25 -28 4 0 6 -4 2 -9 -3 -5 1 -16 9 -24 8 -8 12 -17
9 -21 -4 -3 -2 -6 4 -6 5 0 18 -18 29 -40 10 -22 23 -40 28 -40 4 0 5 -7 2
-15 -3 -9 1 -18 9 -21 8 -4 15 -15 15 -25 0 -10 4 -19 9 -19 10 0 27 -39 23
-52 -1 -5 4 -8 11 -8 8 0 14 -7 14 -14 0 -15 43 -107 54 -116 3 -3 12 -22 18
-42 7 -21 17 -38 23 -38 6 0 9 -3 5 -6 -6 -6 21 -84 32 -94 4 -3 12 -23 19
-45 14 -43 29 -79 44 -108 5 -10 6 -22 3 -27 -4 -6 -1 -10 6 -10 7 0 10 -3 6
-6 -3 -4 3 -24 14 -45 11 -22 16 -39 13 -39 -4 0 1 -10 12 -22 10 -12 13 -18
7 -14 -7 4 -13 3 -13 -3 0 -5 4 -11 10 -13 5 -1 11 -13 13 -25 2 -12 6 -26 10
-29 4 -4 7 -18 7 -31 0 -12 4 -23 10 -23 5 0 9 -3 8 -7 -2 -9 17 -76 39 -142
8 -24 16 -51 18 -60 2 -9 10 -37 18 -63 8 -26 12 -49 9 -52 -3 -4 0 -6 7 -6 7
0 9 -4 6 -10 -3 -5 -3 -16 2 -22 9 -16 14 -36 16 -65 0 -13 4 -23 8 -23 4 0 8
-8 7 -17 0 -34 11 -85 21 -97 6 -7 9 -15 6 -17 -2 -3 2 -33 10 -68 9 -34 13
-67 9 -72 -3 -5 -1 -9 4 -9 5 0 8 -10 7 -22 -1 -13 2 -31 7 -40 6 -12 5 -18
-3 -18 -8 0 -8 -4 -1 -13 6 -7 13 -40 16 -73 2 -32 8 -67 11 -76 5 -11 2 -18
-5 -18 -9 0 -10 -3 -1 -13 7 -10 10 -95 7 -283 -2 -148 -4 -272 -5 -276 -1 -4
-12 -7 -26 -6 -23 2 -29 10 -26 31 0 4 -4 7 -10 7 -5 0 -7 5 -4 10 3 6 2 10
-4 10 -6 0 -8 7 -5 15 4 8 1 15 -6 15 -6 0 -10 6 -7 13 2 6 -3 18 -12 25 -12
10 -13 12 -1 6 12 -6 13 -5 4 7 -6 8 -17 35 -25 62 -7 26 -16 47 -19 47 -3 0
-6 10 -7 22 -1 11 -6 24 -10 27 -8 6 -15 27 -16 49 0 6 -3 12 -7 12 -4 0 -7 7
-8 15 -1 8 -3 22 -4 30 -1 8 -6 15 -11 15 -6 0 -8 3 -5 6 3 3 -5 33 -19 67
-13 34 -26 67 -27 72 -1 6 -7 19 -13 30 -5 11 -8 26 -6 33 3 6 1 12 -4 12 -5
0 -16 23 -23 50 -7 28 -18 50 -23 50 -6 0 -8 3 -5 6 3 3 -4 32 -17 64 -13 32
-20 61 -17 64 3 3 0 6 -7 6 -7 0 -9 5 -6 10 3 6 2 10 -3 10 -5 0 -9 7 -10 15
-1 8 -3 22 -4 30 -1 8 -5 15 -10 15 -4 0 -8 8 -8 18 0 10 -3 22 -7 26 -5 4 -8
11 -9 14 0 4 -3 14 -7 22 -3 8 -17 49 -32 90 -15 41 -29 82 -32 90 -4 8 -7 18
-8 23 -2 4 -4 10 -5 15 -2 4 -4 12 -4 17 -1 6 -7 20 -14 31 -6 12 -8 24 -5 28
3 3 2 6 -3 6 -10 0 -38 82 -38 115 -1 11 4 23 9 27 7 5 7 8 0 8 -6 0 -10 53
-10 140 0 77 -4 140 -9 140 -4 0 -3 6 3 14 7 8 8 17 4 19 -5 3 -9 26 -8 51 0
25 -2 46 -6 46 -3 0 -5 23 -4 50 1 28 -1 50 -4 50 -4 0 -7 12 -8 28 -1 15 -4
43 -7 62 -3 19 -8 51 -11 70 -3 19 -8 44 -12 55 -4 11 -8 27 -9 35 -2 14 -6
29 -20 83 -3 12 -7 34 -8 50 0 15 -4 27 -7 27 -3 0 -12 25 -19 55 -7 31 -17
58 -22 61 -5 3 -6 10 -2 15 3 5 -2 21 -11 36 -12 17 -13 23 -4 17 12 -6 12 -5
1 8 -7 8 -15 35 -18 59 l-6 44 22 -25 c12 -14 29 -37 38 -52z m687 -2808 c-3
-6 1 -13 10 -16 13 -6 14 -8 3 -15 -8 -6 -9 -9 -1 -9 15 0 10 -48 -7 -63 -10
-9 -11 -9 -6 1 4 6 2 12 -5 12 -7 0 -9 10 -7 25 3 14 1 25 -3 25 -5 0 -9 5 -9
11 0 5 6 7 13 3 9 -6 9 -4 -1 8 -10 13 -10 17 0 21 19 8 20 8 13 -3z m-35
-1148 c0 -10 4 -22 10 -28 5 -5 10 -24 12 -42 1 -17 5 -32 8 -32 4 0 7 -6 8
-12 5 -39 9 -55 20 -75 7 -13 10 -23 7 -23 -4 0 -3 -6 2 -12 8 -13 13 -33 15
-55 1 -7 4 -13 8 -13 3 0 6 -9 7 -19 1 -11 11 -49 22 -85 21 -68 22 -124 6
-281 -4 -33 -8 -76 -10 -95 -2 -19 -4 -35 -6 -35 -1 0 -3 -9 -4 -20 -3 -17
-12 -61 -29 -140 -2 -11 -12 -47 -22 -80 -10 -33 -19 -63 -20 -67 -1 -5 -3
-10 -4 -13 -1 -3 -3 -8 -4 -12 -13 -58 -87 -222 -130 -285 -10 -16 -25 -28
-33 -28 -12 0 -13 3 -4 13 6 8 7 17 3 21 -4 4 -8 20 -8 34 -1 15 -3 27 -4 27
-2 0 -4 8 -13 55 -3 14 -11 40 -18 58 -14 41 -8 105 21 212 7 25 14 56 17 70
8 40 11 55 13 55 2 0 7 21 15 60 3 17 10 46 15 65 5 19 12 53 15 75 3 22 8 51
11 65 3 14 6 39 7 55 1 17 5 35 8 40 3 6 5 29 5 53 -1 23 2 42 5 42 8 0 5 33
-5 48 -4 6 -3 12 2 12 5 0 9 6 9 13 0 6 4 59 8 117 3 58 7 144 8 192 2 63 6
88 15 88 6 0 12 -8 12 -18z m405 -729 c2 -16 7 -44 10 -63 4 -19 7 -44 8 -55
1 -11 7 -23 12 -27 6 -5 5 -8 -3 -8 -8 0 -10 -5 -5 -12 4 -7 9 -24 10 -38 1
-14 4 -38 6 -55 5 -31 15 -104 22 -165 2 -19 4 -35 5 -35 1 0 4 -20 5 -45 2
-25 6 -64 9 -86 7 -53 18 -176 20 -234 1 -25 5 -50 9 -57 4 -6 3 -14 -3 -18
-6 -4 -7 -12 -3 -18 4 -7 8 -54 9 -105 1 -51 4 -95 7 -98 3 -3 2 -17 -3 -30
-6 -14 -6 -26 1 -29 5 -4 7 -11 4 -16 -11 -16 -10 -99 0 -99 7 0 7 -3 0 -8 -5
-4 -10 -31 -10 -59 1 -30 -4 -53 -10 -53 -5 0 -4 -4 3 -9 18 -11 18 -12 3 -40
-8 -14 -9 -21 -2 -17 8 5 8 0 2 -16 -4 -13 -8 -42 -7 -66 1 -23 -2 -42 -5 -42
-4 0 -6 -15 -6 -32 0 -38 -18 -163 -23 -163 -1 0 -3 -9 -5 -20 -1 -11 -8 -40
-14 -65 -7 -25 -14 -52 -16 -60 -2 -8 -4 -15 -5 -15 -1 0 -4 -13 -6 -30 -3
-16 -7 -37 -11 -45 -3 -8 -5 -19 -4 -24 1 -5 -5 -3 -14 4 -8 7 -13 15 -11 18
3 2 -1 17 -9 32 -8 15 -11 30 -8 34 4 3 1 6 -4 6 -6 0 -10 8 -9 17 2 9 -4 29
-12 45 -7 16 -15 37 -17 46 -2 9 -4 18 -5 20 -2 1 -3 5 -5 10 -1 4 -7 21 -14
37 -7 17 -14 40 -14 51 -2 15 -7 20 -17 16 -13 -5 -13 -3 -1 11 9 11 10 17 2
17 -6 0 -11 8 -11 18 0 10 -3 22 -7 26 -8 8 -9 13 -12 42 -1 14 -4 14 -16 4
-13 -11 -13 -15 -3 -21 7 -5 9 -9 5 -9 -5 0 -5 -6 0 -12 4 -7 8 -15 8 -18 2
-16 29 -87 36 -94 5 -6 9 -20 9 -31 0 -12 3 -25 7 -29 9 -8 34 -75 38 -101 1
-11 10 -37 18 -57 27 -66 40 -173 23 -192 -6 -6 -12 -18 -14 -26 -2 -8 -9 -21
-16 -28 -10 -11 -13 -10 -14 3 -1 8 -3 22 -4 30 -1 8 -7 15 -14 15 -9 0 -10
-9 -3 -37 6 -21 11 -45 13 -53 3 -15 -28 -68 -49 -82 -6 -5 -6 -8 0 -8 11 0
-15 -20 -27 -20 -3 0 -5 8 -3 18 1 9 0 21 -3 27 -7 12 -15 157 -15 280 1 100
3 126 13 120 4 -2 7 2 7 10 0 8 -5 11 -10 8 -6 -4 -8 0 -4 10 3 9 0 18 -9 21
-9 3 -12 11 -9 16 4 6 1 18 -7 27 -7 9 -12 18 -11 19 1 2 1 9 -1 16 -11 38
-28 104 -32 120 -2 10 -6 28 -9 41 -10 42 -17 82 -19 99 -1 10 -5 20 -8 24 -4
3 -4 12 -1 20 3 8 1 14 -4 14 -5 0 -9 8 -10 18 -2 49 -8 82 -14 82 -4 0 -7 10
-7 23 0 36 -6 61 -17 70 -6 5 -2 6 8 3 26 -9 41 3 26 20 -6 8 -9 17 -6 21 4 3
-3 19 -14 34 -11 16 -17 29 -13 29 5 0 3 5 -4 12 -7 7 -12 18 -12 26 0 8 -7
28 -15 45 -13 29 -39 119 -51 173 -2 14 7 33 26 55 36 41 108 147 141 209 13
25 26 47 29 50 3 3 6 10 7 15 1 6 15 41 33 78 41 90 61 147 54 158 -3 5 -1 9
4 9 6 0 24 52 38 113 1 4 2 8 4 10 1 1 3 9 5 17 2 8 8 35 15 60 14 58 23 109
24 138 1 12 5 22 9 22 4 0 7 6 6 13 -1 6 -1 19 0 27 2 22 21 -12 26 -47z
m-1589 -831 c-3 -5 2 -22 10 -38 9 -16 15 -30 14 -32 -1 -2 2 -15 8 -30 5 -15
20 -54 32 -87 12 -33 26 -69 32 -80 5 -12 10 -28 12 -38 1 -9 5 -20 9 -23 4
-4 7 -15 7 -25 0 -10 5 -30 12 -46 6 -15 12 -36 13 -45 2 -10 3 -19 5 -20 2
-3 6 -20 13 -58 3 -14 6 -25 7 -25 8 0 6 -38 -3 -48 -7 -7 -13 -18 -15 -25 -1
-8 -12 -24 -25 -36 -36 -37 -67 -76 -61 -76 3 0 -7 -11 -23 -24 -15 -13 -32
-22 -37 -19 -4 3 -2 9 5 14 8 5 10 9 4 9 -5 0 -10 11 -10 25 0 14 4 25 8 25 4
0 4 7 -1 16 -5 9 -6 31 -2 49 4 18 4 39 0 46 -5 7 -6 22 -3 33 2 12 4 26 4 31
-1 6 -3 37 -6 70 -2 33 -7 107 -10 165 -8 173 -14 254 -20 278 -4 16 -1 22 10
22 9 0 14 -4 11 -8z m219 -955 c3 -18 8 -45 10 -62 2 -16 4 -31 6 -32 1 -2 3
-12 4 -23 1 -11 3 -21 5 -22 1 -2 3 -16 5 -33 2 -16 7 -46 10 -65 9 -55 22
-159 31 -245 14 -125 7 -476 -10 -561 -2 -12 -7 -39 -10 -59 -4 -21 -11 -44
-17 -51 -6 -8 -6 -14 0 -18 9 -6 3 -31 -21 -94 -4 -13 -6 -28 -3 -33 4 -5 2
-9 -2 -9 -8 0 -39 -71 -34 -78 1 -1 -5 -10 -14 -18 -8 -9 -15 -22 -15 -30 0
-14 -7 -25 -40 -61 -8 -9 -13 -18 -11 -21 1 -2 -6 -15 -18 -28 -12 -13 -21
-27 -21 -30 0 -7 -42 -43 -50 -44 -3 0 -5 26 -5 58 1 31 -3 63 -8 70 -6 7 -6
12 0 12 10 0 11 56 0 66 -3 3 -2 16 3 29 5 13 6 26 2 29 -10 11 -9 46 2 46 7
0 8 3 1 8 -6 4 -11 32 -12 62 -2 103 -11 229 -17 239 -4 5 -2 12 4 16 6 4 7
12 3 18 -4 7 -8 21 -9 32 -2 35 -13 119 -19 145 -3 14 -7 44 -10 68 -3 24 -10
62 -16 85 -16 64 -17 81 -6 95 5 6 7 12 5 12 -3 0 3 35 14 78 11 42 22 93 25
112 3 19 8 37 12 40 3 3 6 19 7 35 1 43 14 127 22 140 4 6 43 42 87 80 44 38
82 73 83 77 7 16 21 -3 27 -35z m550 -496 c-3 -5 -1 -11 4 -13 11 -4 29 -173
36 -348 1 -47 4 -87 5 -90 1 -3 1 -9 0 -15 -2 -5 -5 -46 -6 -90 -8 -178 -11
-212 -18 -223 -4 -7 -2 -12 5 -12 8 0 8 -4 2 -12 -6 -7 -11 -31 -12 -53 -1
-45 -4 -62 -20 -123 -7 -23 -16 -42 -21 -42 -6 0 -9 -3 -8 -7 5 -16 -39 -80
-76 -112 -10 -9 -29 -26 -42 -38 -13 -13 -30 -23 -39 -23 -8 0 -15 -5 -15 -10
0 -6 -17 -18 -37 -28 -21 -9 -40 -20 -43 -24 -3 -4 -15 -9 -25 -11 -11 -1 -26
-6 -33 -11 -7 -4 -19 -5 -27 -2 -8 3 -15 1 -15 -4 0 -4 -24 -7 -52 -5 -29 1
-53 4 -53 5 0 1 -8 3 -18 5 -11 2 -16 0 -12 -3 4 -4 11 -8 16 -8 5 -1 11 -3
14 -4 3 -1 8 -3 13 -4 4 -1 13 -5 20 -9 33 -21 207 -8 282 21 14 5 27 9 30 8
3 0 19 9 37 22 40 28 53 28 46 0 -3 -13 -6 -31 -6 -40 -1 -10 -6 -18 -11 -18
-5 0 -7 -2 -4 -6 3 -3 -3 -27 -13 -53 -10 -27 -15 -51 -12 -55 4 -3 2 -6 -4
-6 -5 0 -10 -6 -11 -12 -1 -22 -10 -52 -26 -90 -9 -21 -13 -38 -9 -38 5 0 0
-5 -9 -11 -9 -5 -15 -15 -12 -23 3 -7 -2 -19 -11 -26 -8 -7 -15 -16 -15 -21 0
-16 -64 -99 -77 -99 -7 0 -13 -4 -13 -8 0 -5 -16 -14 -35 -22 -19 -8 -35 -16
-35 -20 0 -3 -8 -7 -17 -8 -48 -5 -88 -10 -88 -12 0 -7 -114 -12 -255 -12
-277 0 -280 0 -280 17 0 9 7 18 15 21 8 4 15 13 15 22 0 8 3 12 6 9 6 -6 84
67 84 78 0 3 14 24 30 47 17 22 30 47 30 54 0 7 8 18 18 23 9 6 13 11 8 11 -5
0 -3 7 4 15 6 8 9 18 6 23 -3 6 0 15 8 21 8 7 17 27 20 45 9 47 44 82 109 107
15 6 27 14 27 19 0 4 14 13 30 20 17 7 30 16 30 21 0 5 7 9 15 9 8 0 15 5 15
12 0 6 3 9 6 5 3 -3 13 2 23 11 10 10 43 41 74 70 31 29 57 56 57 60 0 4 8 15
18 23 9 9 24 26 32 39 8 12 20 28 25 34 37 43 134 248 127 269 -1 4 2 7 7 7 5
0 12 17 16 38 4 20 11 42 17 49 5 7 7 17 3 23 -3 5 -1 10 5 10 6 0 8 5 5 10
-4 6 -2 17 4 24 6 7 13 28 15 47 3 19 10 51 15 72 5 20 7 37 4 37 -3 0 1 8 8
17 12 15 12 16 -1 8 -12 -7 -13 -6 -4 6 6 8 12 21 12 29 3 47 16 227 23 313 2
20 7 37 12 37 5 0 4 7 -3 15 -10 12 -10 15 0 15 7 0 10 6 7 14 -3 8 -1 17 6
19 14 5 31 -19 22 -32z m-8481 -413 c-3 -4 -1 -8 3 -8 8 0 12 -16 16 -70 1
-14 5 -27 8 -30 4 -3 8 -21 10 -40 2 -19 7 -41 12 -48 6 -7 7 -15 4 -19 -4 -3
-2 -12 4 -20 6 -7 9 -13 6 -13 -4 0 0 -18 8 -39 7 -22 11 -41 9 -44 -3 -3 -1
-13 5 -24 5 -10 20 -52 32 -93 12 -41 29 -91 38 -110 8 -19 16 -38 17 -42 1
-5 3 -10 4 -13 1 -3 3 -8 5 -12 1 -5 7 -21 14 -38 7 -16 14 -36 15 -43 1 -8 9
-18 17 -23 8 -5 11 -9 7 -9 -9 0 102 -224 113 -228 5 -2 9 -8 9 -13 0 -12 89
-144 124 -183 14 -16 26 -32 26 -36 0 -4 11 -13 25 -20 14 -7 23 -16 20 -18
-9 -10 18 -32 39 -32 15 0 17 -3 8 -9 -11 -6 -10 -10 5 -15 10 -4 19 -7 21 -6
5 2 42 -42 42 -48 0 -3 -3 -3 -6 1 -7 7 -64 -53 -64 -67 0 -5 -3 -7 -6 -3 -3
3 -23 -11 -44 -31 -69 -67 -110 -95 -110 -74 0 4 -16 25 -36 47 -20 22 -42 52
-50 67 -8 16 -19 28 -24 28 -6 0 -10 6 -10 13 0 7 -11 28 -25 47 -13 18 -22
37 -19 41 3 5 1 9 -4 9 -11 0 -75 124 -75 145 0 8 -4 12 -8 10 -7 -5 -24 43
-21 58 1 4 -3 7 -10 7 -6 0 -8 3 -5 7 4 3 2 12 -4 20 -6 7 -8 13 -5 13 4 0 1
12 -7 28 -24 46 -48 132 -41 144 4 6 3 8 -3 5 -6 -4 -13 5 -15 21 -8 43 -12
57 -23 64 -6 5 -5 8 4 8 10 0 11 3 2 13 -6 8 -13 31 -17 53 -8 49 -12 69 -14
69 -1 0 -3 14 -5 30 -2 17 -6 44 -9 60 -12 79 -17 135 -19 195 -1 36 -6 68
-12 72 -6 5 -5 8 4 8 10 0 11 3 2 13 -6 8 -8 16 -5 20 9 8 11 77 3 77 -9 0 -6
27 3 36 4 3 3 17 -3 31 -11 30 -11 36 -1 29 4 -2 6 12 4 32 -2 27 -1 33 7 22
5 -8 7 -18 5 -22z m6946 -55 c0 -3 -8 -16 -17 -27 -17 -20 -17 -20 0 -7 17 13
18 12 12 -15 -3 -16 -7 -47 -7 -69 -1 -22 -5 -48 -10 -57 -6 -12 -5 -18 2 -18
6 0 8 -5 3 -12 -9 -16 -13 -34 -15 -75 -1 -18 -6 -33 -10 -33 -4 0 -7 -3 -6
-7 2 -7 -9 -83 -14 -103 -1 -3 -12 -34 -25 -70 -13 -36 -26 -72 -28 -80 -2 -8
-4 -17 -5 -20 -1 -3 -2 -8 -1 -12 0 -5 -3 -8 -8 -8 -5 0 -12 -12 -16 -27 -9
-39 -95 -217 -106 -221 -5 -2 -7 -8 -3 -13 3 -5 -2 -12 -10 -15 -9 -3 -16 -12
-16 -20 0 -8 -4 -14 -10 -14 -5 0 -10 -7 -10 -15 0 -8 -4 -15 -10 -15 -5 0
-10 -7 -10 -16 0 -8 -4 -12 -10 -9 -5 3 -10 2 -10 -4 0 -18 -128 -131 -147
-131 -7 0 -13 -5 -13 -11 0 -5 -4 -7 -10 -4 -5 3 -10 1 -10 -6 0 -7 -3 -9 -7
-6 -3 4 -12 2 -19 -4 -19 -15 -144 -14 -144 2 0 5 -6 6 -12 4 -18 -6 -45 16
-45 37 0 12 8 15 29 12 16 -1 26 1 23 6 -5 9 52 26 70 21 6 -1 7 1 3 4 -4 4
19 24 50 45 86 57 202 176 202 209 0 6 4 11 9 11 11 0 114 187 114 207 0 7 4
13 9 13 4 0 8 6 8 14 0 8 9 31 21 50 12 20 18 36 15 36 -4 0 -1 10 6 23 7 12
13 24 13 27 3 15 18 59 31 88 9 18 16 42 17 52 1 11 5 20 10 20 4 0 5 5 2 10
-3 6 -1 10 5 10 6 0 9 4 6 9 -4 5 -1 22 5 38 7 15 13 33 15 38 2 6 10 35 19
65 9 30 19 65 22 78 5 20 43 34 43 15z m-6693 -312 c15 -31 26 -59 25 -63 -1
-5 2 -8 8 -8 6 0 10 -4 10 -10 0 -5 12 -35 27 -67 15 -32 26 -61 25 -65 -1 -5
3 -8 8 -8 5 0 9 -3 8 -7 -3 -11 34 -87 46 -95 6 -4 7 -8 3 -8 -9 0 42 -101 56
-111 5 -3 9 -10 10 -15 2 -21 22 -64 29 -64 4 0 8 -9 8 -20 0 -11 4 -20 8 -20
4 0 14 -16 21 -35 7 -19 16 -35 20 -35 4 0 13 -16 21 -35 8 -19 18 -35 22 -35
5 0 6 -4 3 -10 -3 -5 -2 -10 3 -10 5 0 17 -18 28 -39 10 -22 22 -37 26 -35 5
3 8 0 8 -6 0 -11 33 -62 58 -88 6 -7 12 -16 12 -20 -1 -12 -70 -52 -70 -41 0
6 -4 8 -8 5 -10 -6 -81 61 -132 123 -19 24 -43 52 -52 63 -10 11 -20 29 -23
39 -4 11 -11 19 -16 19 -5 0 -9 5 -9 11 0 6 -9 23 -19 38 -11 15 -21 34 -23
42 -2 8 -5 16 -8 19 -12 10 -64 125 -63 138 0 6 -3 12 -9 12 -5 0 -6 5 -3 10
3 6 1 10 -4 10 -6 0 -11 5 -11 11 0 5 6 7 13 3 6 -4 1 5 -13 21 -14 16 -18 25
-10 20 12 -6 13 -5 3 6 -7 7 -13 23 -13 36 0 13 -5 23 -11 23 -6 0 -9 7 -6 15
4 8 2 17 -4 21 -6 3 -8 12 -5 20 3 8 1 14 -5 14 -6 0 -7 5 -4 10 4 6 1 17 -5
25 -7 8 -10 15 -6 15 3 0 1 12 -4 26 -8 19 -7 23 3 17 7 -4 5 3 -4 17 -9 14
-15 39 -14 57 1 19 -2 30 -8 26 -5 -3 -7 0 -5 8 3 8 1 26 -3 41 -4 16 -3 30 2
34 5 3 7 10 4 15 -3 5 1 6 10 3 8 -4 28 -32 42 -63z m523 -341 c6 -11 7 -20 3
-20 -4 0 -3 -4 2 -8 14 -10 50 -84 48 -99 0 -7 6 -13 14 -13 8 0 11 -4 8 -10
-3 -5 -1 -10 5 -10 7 0 10 -6 7 -14 -3 -8 -3 -16 1 -18 9 -4 72 -96 72 -105 0
-4 10 -17 21 -29 l21 -23 -32 -30 c-18 -16 -39 -27 -46 -24 -13 5 -68 115 -64
129 1 4 -3 10 -9 14 -6 3 -14 17 -16 30 -2 13 -10 27 -17 32 -10 6 -9 8 2 8
13 0 13 1 0 10 -8 5 -12 10 -7 10 4 0 1 14 -8 30 -10 19 -11 30 -5 30 6 0 4 7
-4 16 -19 19 -21 34 -3 34 9 0 9 2 -1 9 -16 10 -27 71 -13 71 6 0 15 -9 21
-20z m6061 -157 c0 -16 3 -50 5 -78 3 -27 4 -56 4 -62 0 -7 0 -19 0 -25 0 -7
2 -40 5 -74 l6 -61 -50 -54 c-28 -30 -51 -50 -51 -45 0 6 -6 2 -13 -7 -12 -18
-87 -32 -87 -17 0 5 -8 7 -17 6 -10 -2 -31 3 -48 9 -16 7 -36 10 -42 8 -7 -3
-13 0 -13 5 0 5 -7 13 -16 16 -10 4 -13 2 -8 -7 6 -9 5 -9 -8 0 -8 7 -18 10
-21 6 -4 -3 -7 -1 -7 6 0 7 -4 9 -10 6 -5 -3 -10 -2 -10 4 0 6 -8 8 -17 5 -10
-3 8 9 40 27 51 29 223 179 205 179 -3 0 6 12 20 28 36 36 88 103 85 108 -4 5
30 42 40 43 4 1 7 -11 8 -26z"/>
<path d="M9505 3929 c-4 -6 -5 -13 -2 -16 7 -7 27 6 27 18 0 12 -17 12 -25 -2z"/>
<path d="M9515 3901 c-3 -5 -1 -12 3 -15 5 -3 15 -26 22 -51 7 -25 17 -48 21
-51 5 -3 9 -14 9 -25 0 -11 4 -18 9 -14 6 3 10 -3 10 -12 -1 -32 7 -57 19 -61
6 -2 9 -9 6 -17 -3 -7 -1 -16 4 -19 17 -10 21 20 7 48 -8 14 -11 26 -8 26 3 0
-5 16 -16 36 -12 19 -19 40 -16 45 4 5 2 9 -3 9 -5 0 -15 20 -22 45 -7 25 -17
45 -22 45 -5 0 -6 5 -3 10 3 6 2 10 -4 10 -5 0 -12 -4 -16 -9z"/>
<path d="M9637 3276 c-4 -10 -3 -15 3 -11 6 3 10 -3 10 -14 0 -12 4 -21 10
-21 5 0 8 -10 6 -22 -2 -13 1 -29 6 -35 6 -7 7 -13 3 -13 -4 0 -2 -6 4 -14 7
-8 13 -28 13 -45 1 -18 6 -31 14 -31 9 0 9 11 -3 48 -8 26 -16 59 -17 73 -2
14 -9 35 -15 47 -7 12 -9 28 -5 34 4 6 3 8 -4 4 -5 -3 -12 -1 -14 6 -3 7 -7 5
-11 -6z"/>
<path d="M9806 2758 c3 -5 10 -6 15 -3 13 9 11 12 -6 12 -8 0 -12 -4 -9 -9z"/>
<path d="M9726 844 c-20 -19 -20 -21 -1 -21 8 0 13 3 10 5 -3 3 3 11 13 18 9
7 12 14 5 14 -6 0 -19 -7 -27 -16z"/>
</g>
</svg>
